<svg xmlns="http://www.w3.org/2000/svg" viewBox="0 0 100 100">
  <polygon points="30,24 38,2 47,22" fill="#17181C"></polygon>
  <polygon points="53,22 62,2 70,24" fill="#17181C"></polygon>
  <polygon points="33,21 38,8 43,20" fill="#FAF7F2"></polygon>
  <polygon points="57,20 62,8 67,21" fill="#FAF7F2"></polygon>
  <path d="M50,14 C66,14 80,23 80,37 L80,54 C80,75 65,89 50,97 C35,89 20,75 20,54 L20,37 C20,23 34,14 50,14 Z" fill="#17181C"></path>
  <line x1="21" y1="50" x2="2" y2="45" stroke="#FAF7F2" stroke-width="1.8" stroke-linecap="round"></line>
  <line x1="20" y1="57" x2="1" y2="57" stroke="#FAF7F2" stroke-width="1.8" stroke-linecap="round"></line>
  <line x1="21" y1="64" x2="2" y2="69" stroke="#FAF7F2" stroke-width="1.8" stroke-linecap="round"></line>
  <line x1="79" y1="50" x2="98" y2="45" stroke="#FAF7F2" stroke-width="1.8" stroke-linecap="round"></line>
  <line x1="80" y1="57" x2="99" y2="57" stroke="#FAF7F2" stroke-width="1.8" stroke-linecap="round"></line>
  <line x1="79" y1="64" x2="98" y2="69" stroke="#FAF7F2" stroke-width="1.8" stroke-linecap="round"></line>
  <ellipse cx="38" cy="45" rx="7" ry="5" fill="#2FB6A7"></ellipse>
  <line x1="38" y1="41" x2="38" y2="49" stroke="#FAF7F2" stroke-width="2.4" stroke-linecap="round"></line>
  <ellipse cx="62" cy="45" rx="7" ry="5" fill="#2FB6A7"></ellipse>
  <line x1="62" y1="41" x2="62" y2="49" stroke="#FAF7F2" stroke-width="2.4" stroke-linecap="round"></line>
  <polygon points="46,58 54,58 50,64" fill="#2FB6A7"></polygon>
  <path d="M50,64 C46,69 41,70 37,67" fill="none" stroke="#FAF7F2" stroke-width="2.2" stroke-linecap="round"></path>
  <path d="M50,64 C54,69 59,70 63,67" fill="none" stroke="#FAF7F2" stroke-width="2.2" stroke-linecap="round"></path>
  <circle cx="77" cy="79" r="17" fill="#2FB6A7"></circle>
  <path d="M69,79 L75,85 L87,71" fill="none" stroke="#FAF7F2" stroke-width="5" stroke-linecap="round" stroke-linejoin="round"></path>
</svg>